<svg width="158" height="59" viewBox="0 0 158 59" fill="none" xmlns="http://www.w3.org/2000/svg">
<path d="M17.7316 39.8471C20.1275 39.1059 21.8608 36.9151 21.8608 34.3307V33.8191C21.8608 29.2078 18.0529 25.4756 13.3481 25.4756H0.820068V40.116V57.5114H14.6331C19.9133 57.5114 24.1897 53.32 24.1897 48.1447V47.4362C24.1897 43.7565 21.3455 40.4243 17.7316 39.8471ZM5.87948 29.8638H12.7458C14.961 29.8638 16.7479 31.6217 16.7479 33.7863V34.2323C16.7479 36.4034 14.9543 38.1548 12.7458 38.1548H5.87948V29.8638ZM18.8894 48.1775C18.8894 50.9258 16.6207 53.1494 13.8166 53.1494H5.87948V42.1691H13.8166C16.6207 42.1691 18.8894 44.3927 18.8894 47.1411V48.1775Z" fill="#F2E0CF"/>
<path d="M50.658 37.6563C50.658 30.9264 45.0967 25.4756 38.2304 25.4756H33.3851H29.8114H28.2855V57.5114H33.3851V49.837H38.2304C38.4847 49.837 38.739 49.8173 38.9933 49.7976L44.3873 57.5114H50.6647L44.1062 48.3939C48.0079 46.3343 50.658 42.3003 50.658 37.6563ZM33.3851 30.0802H37.7017C41.8375 30.0802 45.1904 33.3665 45.1904 37.4201V38.1679C45.1904 42.2216 41.8375 45.5078 37.7017 45.5078H33.3851V30.0802Z" fill="#F2E0CF"/>
<path d="M70.8086 48.302C74.7116 48.302 77.8757 45.2537 77.8757 41.4934C77.8757 37.7331 74.7116 34.6848 70.8086 34.6848C66.9055 34.6848 63.7415 37.7331 63.7415 41.4934C63.7415 45.2537 66.9055 48.302 70.8086 48.302Z" fill="#F2E0CF"/>
<path d="M70.8087 24.308C61.0713 24.308 53.181 32.0414 53.181 41.5853C53.181 51.1291 61.0713 58.8626 70.8087 58.8626C80.546 58.8626 88.4363 51.1291 88.4363 41.5853C88.4363 32.0414 80.546 24.308 70.8087 24.308ZM70.8087 53.5954C64.0896 53.5954 58.642 48.2233 58.642 41.5918C58.642 34.9603 64.0896 29.5883 70.8087 29.5883C77.5278 29.5883 82.9754 34.9603 82.9754 41.5918C82.9754 48.2233 77.5278 53.5954 70.8087 53.5954Z" fill="#BC4D97"/>
<path d="M128.831 25.5935H123.21L114.657 47.4755L110.501 37.7939L116.102 25.5935H110.682L108.018 32.0151L105.261 25.5935H99.8399L105.522 38.0628L101.607 47.5148L92.5319 25.5935H87.1111L101.165 58.1344L107.938 43.3824L114.657 58.1344L128.831 25.5935Z" fill="#F2E0CF"/>
<path d="M131.361 24.8851L136.059 29.6472V57.4326H131.361V24.8851Z" fill="#F2E0CF"/>
<path d="M157.18 25.5935H152.482V46.3801L131.361 24.8851V57.4326H136.059V36.6919L157.18 58.1344V25.5935Z" fill="#F2E0CF"/>
<path d="M33.2645 4.24297C32.254 4.24297 31.3237 4.59061 30.5943 5.1744L30.1794 1.93408L27.7233 2.1571L29.3495 13.4064L31.6115 13.1833L31.4777 12.1142C32.0198 12.3634 32.6221 12.5077 33.2645 12.5077C35.5935 12.5077 37.4807 10.658 37.4807 8.37535C37.4807 6.0927 35.5935 4.24297 33.2645 4.24297ZM33.0437 10.4022C32.1201 10.4022 31.3505 9.80529 31.0828 8.98537L30.9891 8.25072C31.0561 7.18811 31.9461 6.34852 33.0437 6.34852C34.1881 6.34852 35.1116 7.25371 35.1116 8.37535C35.1116 9.49044 34.1881 10.4022 33.0437 10.4022Z" fill="#F5E0D1"/>
<path d="M45.0497 5.04973L44.9761 5.95492C44.2332 5.36458 43.2896 5.01038 42.259 5.01038C39.8631 5.01038 37.9224 6.91258 37.9224 9.26083C37.9224 11.6091 39.8631 13.5113 42.259 13.5113C43.0487 13.5113 43.7915 13.3014 44.4273 12.9406L44.347 13.9442H46.6224L47.2983 5.04973H45.0497ZM42.52 11.3861C41.4091 11.3861 40.5123 10.5071 40.5123 9.41825C40.5123 8.3294 41.4091 7.45045 42.52 7.45045C43.6309 7.45045 44.5277 8.3294 44.5277 9.41825C44.5277 10.5071 43.6309 11.3861 42.52 11.3861Z" fill="#F5E0D1"/>
<path d="M52.7392 4.71511C52.7392 4.71511 50.9725 5.11523 50.8118 6.34839C50.6914 7.29293 53.0136 9.4116 52.5184 11.1892C52.0031 13.0324 48.8041 13.8654 48.8041 13.8654L48.1416 12.3108C48.1416 12.3108 50.1493 11.8386 50.069 10.7366C49.9753 9.4116 47.894 7.74553 48.3825 5.87612C48.9045 3.86896 51.9763 3.36389 51.9763 3.36389L52.7392 4.71511Z" fill="#F5E0D1"/>
<path d="M60.2481 11.9305L62.1421 10.4022L59.5387 7.07661L61.7004 5.04321L60.0407 3.4165L56.0119 7.35866L56.4335 0.602539H53.9038L53.442 12.7832L55.8111 10.5793V10.5727L57.7519 8.74924L60.2481 11.9305Z" fill="#F5E0D1"/>
<path d="M64.3438 4.49227C65.0831 4.49227 65.6823 3.90492 65.6823 3.1804C65.6823 2.45587 65.0831 1.86853 64.3438 1.86853C63.6046 1.86853 63.0054 2.45587 63.0054 3.1804C63.0054 3.90492 63.6046 4.49227 64.3438 4.49227Z" fill="#F5E0D1"/>
<path d="M113.733 4.11177C114.472 4.11177 115.072 3.52443 115.072 2.7999C115.072 2.07538 114.472 1.48804 113.733 1.48804C112.994 1.48804 112.395 2.07538 112.395 2.7999C112.395 3.52443 112.994 4.11177 113.733 4.11177Z" fill="#F5E0D1"/>
<path d="M114.409 11.1958H112.395L112.562 4.33472H114.73L114.409 11.1958Z" fill="#F5E0D1"/>
<path d="M75.7075 5.00374H73.3049V9.09021L69.7446 5.61376L67.6566 3.51477L67.342 12.547H69.7446V8.65073L73.5191 12.4027L75.3929 14.2918L75.7075 5.00374Z" fill="#F5E0D1"/>
<path d="M123.631 4.33475H121.584V7.94239L116.31 1.97339V11.0056L118.405 11.0384L118.398 7.27333L123.631 12.8619V4.33475Z" fill="#F5E0D1"/>
<path d="M86.6694 6.09264V3.51482C86.6694 3.51482 84.7621 3.45579 83.9188 4.28227L83.8452 3.27869L81.0746 3.42955L82.0383 12.9931L84.6751 12.8881L84.3204 8.27034C84.2735 7.65376 84.4877 7.03063 84.9695 6.63051C85.6856 6.04017 86.6694 6.09264 86.6694 6.09264Z" fill="#F5E0D1"/>
<path d="M90.1628 5.3252C87.9142 5.3252 86.0872 6.99127 86.0872 9.04434C86.0872 11.0974 87.9142 12.7635 90.1628 12.7635C92.4114 12.7635 94.2384 11.0974 94.2384 9.04434C94.2384 6.99127 92.4114 5.3252 90.1628 5.3252ZM90.1628 10.7957C89.1054 10.7957 88.2421 10.0086 88.2421 9.04434C88.2421 8.08012 89.0987 7.293 90.1628 7.293C91.2202 7.293 92.0835 8.08012 92.0835 9.04434C92.0835 10.0086 91.2202 10.7957 90.1628 10.7957Z" fill="#F5E0D1"/>
<path d="M98.9365 5.98766C98.2672 5.98766 97.6649 6.13853 97.1496 6.39434L97.1898 3.27209H95.0214L94.8608 13.5637H97.0492L97.0559 12.9734C97.598 13.262 98.2338 13.426 98.9365 13.426C101.185 13.426 103.012 11.7599 103.012 9.70681C103.012 7.65373 101.185 5.98766 98.9365 5.98766ZM98.9365 11.4581C98.0531 11.4581 97.3236 10.9137 97.0961 10.1725L97.1095 9.19518C97.3504 8.48021 98.0732 7.9489 98.9365 7.9489C99.9939 7.9489 100.857 8.73602 100.857 9.70025C100.857 10.6645 99.9939 11.4581 98.9365 11.4581Z" fill="#F5E0D1"/>
<path d="M107.59 4.14454C106.84 4.14454 106.198 4.34132 105.669 4.68241L105.582 1.70447H103.394L103.755 11.9567H105.883L105.863 11.1827C106.352 11.432 106.927 11.5828 107.59 11.5828C109.838 11.5828 111.665 9.91676 111.665 7.86369C111.665 5.81061 109.838 4.14454 107.59 4.14454ZM107.59 9.61503C106.746 9.61503 106.037 9.11652 105.776 8.42123L105.743 7.39141C105.97 6.65677 106.7 6.11234 107.583 6.11234C108.64 6.11234 109.504 6.89946 109.504 7.86369C109.504 8.82791 108.647 9.61503 107.59 9.61503Z" fill="#F5E0D1"/>
<path d="M65.9166 12.547H63.427L63.1727 5.00378H65.6824L65.9166 12.547Z" fill="#F5E0D1"/>
<path d="M128.878 4.69553C128.878 4.69553 127.125 4.99726 126.911 6.22385C126.716 7.33238 129.273 9.64783 128.55 11.55C127.868 13.3407 125.03 13.7605 125.03 13.7605L124.367 12.206C124.367 12.206 126.375 11.7337 126.295 10.6317C126.201 9.30674 124.12 7.64067 124.608 5.77126C125.13 3.7641 128.202 3.25903 128.202 3.25903L128.878 4.69553Z" fill="#F5E0D1"/>
<path d="M128.866 4.47058H129.161V3.24401H129.578V2.9975H128.453V3.24401H128.866V4.47058ZM128.574 7.47058H128.839V6.8563C128.839 6.71714 128.815 6.51238 128.801 6.37322H128.809L128.926 6.71913L129.155 7.33739H129.324L129.55 6.71913L129.67 6.37322H129.68C129.664 6.51238 129.642 6.71714 129.642 6.8563V7.47058H129.91V5.9975H129.584L129.34 6.68732C129.308 6.77877 129.282 6.87618 129.25 6.96961H129.24C129.21 6.87618 129.183 6.77877 129.151 6.68732L128.9 5.9975H128.574V7.47058Z" fill="#F5E0D1"/>
</svg>
