<svg width="234" height="89" viewBox="0 0 234 89" fill="none" xmlns="http://www.w3.org/2000/svg">
<path d="M25.4499 59.6171C29.0299 58.5096 31.6199 55.236 31.6199 51.3743V50.6098C31.6199 43.7195 25.9299 38.1426 18.8999 38.1426H0.179932V60.019V86.0119H20.8199C28.7099 86.0119 35.0999 79.7489 35.0999 72.0157V70.9572C35.0999 65.4587 30.8499 60.4796 25.4499 59.6171ZM7.73993 44.6996H17.9999C21.3099 44.6996 23.9799 47.3264 23.9799 50.5608V51.2273C23.9799 54.4715 21.2999 57.0884 17.9999 57.0884H7.73993V44.6996ZM27.1799 72.0647C27.1799 76.1714 23.7899 79.4941 19.5999 79.4941H7.73993V63.0868H19.5999C23.7899 63.0868 27.1799 66.4094 27.1799 70.5161V72.0647Z" fill="#F2E0CF"/>
<path d="M74.65 56.3435C74.65 46.2874 66.34 38.1426 56.08 38.1426H48.84H43.5H41.22V86.0119H48.84V74.5444H56.08C56.46 74.5444 56.84 74.515 57.22 74.4856L65.28 86.0119H74.66L64.86 72.3881C70.69 69.3106 74.65 63.2828 74.65 56.3435ZM48.84 45.0231H55.29C61.47 45.0231 66.48 49.9335 66.48 55.9907V57.108C66.48 63.1652 61.47 68.0756 55.29 68.0756H48.84V45.0231Z" fill="#F2E0CF"/>
<path d="M104.76 72.251C110.592 72.251 115.32 67.696 115.32 62.0773C115.32 56.4585 110.592 51.9036 104.76 51.9036C98.9278 51.9036 94.2 56.4585 94.2 62.0773C94.2 67.696 98.9278 72.251 104.76 72.251Z" fill="#F2E0CF"/>
<path d="M104.76 36.3979C90.2099 36.3979 78.4199 47.9536 78.4199 62.2144C78.4199 76.4753 90.2099 88.0309 104.76 88.0309C119.31 88.0309 131.1 76.4753 131.1 62.2144C131.1 47.9536 119.31 36.3979 104.76 36.3979ZM104.76 80.1605C94.7199 80.1605 86.5799 72.1333 86.5799 62.2242C86.5799 52.3152 94.7199 44.288 104.76 44.288C114.8 44.288 122.94 52.3152 122.94 62.2242C122.94 72.1333 114.8 80.1605 104.76 80.1605Z" fill="#BC4D97"/>
<path d="M191.46 38.3191H183.06L170.28 71.0161L164.07 56.5494L172.44 38.3191H164.34L160.36 47.9145L156.24 38.3191H148.14L156.63 56.9513L150.78 71.0749L137.22 38.3191H129.12L150.12 86.9431L160.24 64.9001L170.28 86.9431L191.46 38.3191Z" fill="#F2E0CF"/>
<path d="M195.24 37.2605L202.26 44.3762V85.8943H195.24V37.2605Z" fill="#F2E0CF"/>
<path d="M233.82 38.319H226.8V69.3792L195.24 37.2605V85.8943H202.26V54.9028L233.82 86.943V38.319Z" fill="#F2E0CF"/>
<path d="M48.6599 6.41611C47.1499 6.41611 45.7599 6.93557 44.6699 7.80788L44.0499 2.96606L40.3799 3.29931L42.8099 20.1085L46.1899 19.7752L45.9899 18.1776C46.7999 18.5501 47.6999 18.7657 48.6599 18.7657C52.1399 18.7657 54.9599 16.0017 54.9599 12.5909C54.9599 9.18006 52.1399 6.41611 48.6599 6.41611ZM48.3299 15.6195C46.9499 15.6195 45.7999 14.7276 45.3999 13.5024L45.2599 12.4047C45.3599 10.8169 46.6899 9.56231 48.3299 9.56231C50.0399 9.56231 51.4199 10.9149 51.4199 12.5909C51.4199 14.2571 50.0399 15.6195 48.3299 15.6195Z" fill="#F5E0D1"/>
<path d="M66.2699 7.62155L66.1599 8.97412C65.0499 8.09201 63.6399 7.56274 62.0999 7.56274C58.5199 7.56274 55.6199 10.4051 55.6199 13.914C55.6199 17.4228 58.5199 20.2652 62.0999 20.2652C63.2799 20.2652 64.3899 19.9515 65.3399 19.4125L65.2199 20.912H68.6199L69.6299 7.62155H66.2699ZM62.4899 17.0896C60.8299 17.0896 59.4899 15.7762 59.4899 14.1492C59.4899 12.5222 60.8299 11.2088 62.4899 11.2088C64.1499 11.2088 65.4899 12.5222 65.4899 14.1492C65.4899 15.7762 64.1499 17.0896 62.4899 17.0896Z" fill="#F5E0D1"/>
<path d="M77.7599 7.1216C77.7599 7.1216 75.1199 7.71947 74.8799 9.56211C74.6999 10.9735 78.1699 14.1393 77.4299 16.7954C76.6599 19.5496 71.8799 20.7943 71.8799 20.7943L70.8899 18.4714C70.8899 18.4714 73.8899 17.7658 73.7699 16.1191C73.6299 14.1393 70.5199 11.6498 71.2499 8.85642C72.0299 5.85724 76.6199 5.10254 76.6199 5.10254L77.7599 7.1216Z" fill="#F5E0D1"/>
<path d="M88.9799 17.9031L91.8099 15.6194L87.9199 10.6502L91.1499 7.61177L88.6699 5.18106L82.6499 11.0716L83.2799 0.976318H79.4999L78.8099 19.1772L82.3499 15.884V15.8742L85.2499 13.1495L88.9799 17.9031Z" fill="#F5E0D1"/>
<path d="M95.1 6.78842C96.2045 6.78842 97.1 5.91079 97.1 4.82817C97.1 3.74555 96.2045 2.86792 95.1 2.86792C93.9954 2.86792 93.1 3.74555 93.1 4.82817C93.1 5.91079 93.9954 6.78842 95.1 6.78842Z" fill="#F5E0D1"/>
<path d="M168.9 6.22006C170.004 6.22006 170.9 5.34243 170.9 4.25981C170.9 3.17719 170.004 2.29956 168.9 2.29956C167.795 2.29956 166.9 3.17719 166.9 4.25981C166.9 5.34243 167.795 6.22006 168.9 6.22006Z" fill="#F5E0D1"/>
<path d="M169.91 16.8053H166.9L167.15 6.55322H170.39L169.91 16.8053Z" fill="#F5E0D1"/>
<path d="M112.08 7.55301H108.49V13.6592L103.17 8.46453L100.05 5.32812L99.58 18.8244H103.17V13.0025L108.81 18.6088L111.61 21.4316L112.08 7.55301Z" fill="#F5E0D1"/>
<path d="M183.69 6.55311H180.63V11.9438L172.75 3.02466V16.521L175.88 16.57L175.87 10.9441L183.69 19.2947V6.55311Z" fill="#F5E0D1"/>
<path d="M128.46 9.18008V5.32819C128.46 5.32819 125.61 5.23998 124.35 6.47493L124.24 4.97534L120.1 5.20077L121.54 19.491L125.48 19.3342L124.95 12.4341C124.88 11.5128 125.2 10.5817 125.92 9.98378C126.99 9.10167 128.46 9.18008 128.46 9.18008Z" fill="#F5E0D1"/>
<path d="M133.68 8.0332C130.32 8.0332 127.59 10.5227 127.59 13.5905C127.59 16.6583 130.32 19.1478 133.68 19.1478C137.04 19.1478 139.77 16.6583 139.77 13.5905C139.77 10.5227 137.04 8.0332 133.68 8.0332ZM133.68 16.2074C132.1 16.2074 130.81 15.0313 130.81 13.5905C130.81 12.1497 132.09 10.9736 133.68 10.9736C135.26 10.9736 136.55 12.1497 136.55 13.5905C136.55 15.0313 135.26 16.2074 133.68 16.2074Z" fill="#F5E0D1"/>
<path d="M146.79 9.02305C145.79 9.02305 144.89 9.24848 144.12 9.63073L144.18 4.96533H140.94L140.7 20.3435H143.97L143.98 19.4614C144.79 19.8926 145.74 20.1377 146.79 20.1377C150.15 20.1377 152.88 17.6482 152.88 14.5804C152.88 11.5126 150.15 9.02305 146.79 9.02305ZM146.79 17.1973C145.47 17.1973 144.38 16.3838 144.04 15.2762L144.06 13.8159C144.42 12.7475 145.5 11.9536 146.79 11.9536C148.37 11.9536 149.66 13.1298 149.66 14.5706C149.66 16.0113 148.37 17.1973 146.79 17.1973Z" fill="#F5E0D1"/>
<path d="M159.72 6.26911C158.6 6.26911 157.64 6.56315 156.85 7.07282L156.72 2.62305H153.45L153.99 17.9424H157.17L157.14 16.7859C157.87 17.1583 158.73 17.3837 159.72 17.3837C163.08 17.3837 165.81 14.8942 165.81 11.8264C165.81 8.75863 163.08 6.26911 159.72 6.26911ZM159.72 14.4434C158.46 14.4434 157.4 13.6985 157.01 12.6595L156.96 11.1207C157.3 10.023 158.39 9.20949 159.71 9.20949C161.29 9.20949 162.58 10.3856 162.58 11.8264C162.58 13.2672 161.3 14.4434 159.72 14.4434Z" fill="#F5E0D1"/>
<path d="M97.45 18.8244H93.73L93.35 7.55298H97.1L97.45 18.8244Z" fill="#F5E0D1"/>
<path d="M191.53 7.09227C191.53 7.09227 188.91 7.54313 188.59 9.37597C188.3 11.0324 192.12 14.4922 191.04 17.3346C190.02 20.0103 185.78 20.6376 185.78 20.6376L184.79 18.3147C184.79 18.3147 187.79 17.609 187.67 15.9624C187.53 13.9826 184.42 11.493 185.15 8.69968C185.93 5.7005 190.52 4.9458 190.52 4.9458L191.53 7.09227Z" fill="#F5E0D1"/>
<path d="M191.279 5.76758H191.573V4.541H191.99V4.2945H190.865V4.541H191.279V5.76758ZM192.229 5.76758H192.493V5.1533C192.493 5.01414 192.47 4.80938 192.456 4.67022H192.464L192.581 5.01613L192.81 5.63438H192.979L193.205 5.01613L193.324 4.67022H193.334C193.318 4.80938 193.297 5.01414 193.297 5.1533V5.76758H193.565V4.2945H193.239L192.994 4.98432C192.963 5.07577 192.937 5.17318 192.905 5.26661H192.895C192.865 5.17318 192.837 5.07577 192.806 4.98432L192.555 4.2945H192.229V5.76758Z" fill="#F5E0D1"/>
</svg>
