<svg width="152" height="103" viewBox="0 0 152 103" fill="none" xmlns="http://www.w3.org/2000/svg">
<path d="M26.3743 0.0297852C13.8024 0.0297852 3.62915 10.0009 3.62915 22.3229C3.62915 34.6449 13.8024 44.616 26.3743 44.616C38.9462 44.616 49.1195 34.6449 49.1195 22.3229C49.1195 10.0009 38.9462 0.0297852 26.3743 0.0297852ZM26.3743 31.1996C21.3084 31.1996 17.1935 27.2274 17.1935 22.3229C17.1935 17.4184 21.3084 13.4462 26.3743 13.4462C31.4403 13.4462 35.5551 17.4184 35.5551 22.3229C35.5551 27.2274 31.4403 31.1996 26.3743 31.1996Z" fill="#BC4D97"/>
<path d="M75.876 0.0297852C63.3042 0.0297852 53.1309 10.0009 53.1309 22.3229C53.1309 34.6449 63.3042 44.616 75.876 44.616C88.4479 44.616 98.6212 34.6449 98.6212 22.3229C98.6212 10.0009 88.4479 0.0297852 75.876 0.0297852ZM75.876 31.1996C70.8101 31.1996 66.6953 27.2274 66.6953 22.3229C66.6953 17.4184 70.8101 13.4462 75.876 13.4462C80.942 13.4462 85.0568 17.4184 85.0568 22.3229C85.0568 27.2274 80.942 31.1996 75.876 31.1996Z" fill="#BC4D97"/>
<path d="M125.006 0.0297852C112.434 0.0297852 102.26 10.0009 102.26 22.3229C102.26 34.6449 112.434 44.616 125.006 44.616C137.577 44.616 147.751 34.6449 147.751 22.3229C147.751 10.0009 137.577 0.0297852 125.006 0.0297852ZM125.006 31.1996C119.94 31.1996 115.825 27.2274 115.825 22.3229C115.825 17.4184 119.94 13.4462 125.006 13.4462C130.072 13.4462 134.186 17.4184 134.186 22.3229C134.186 27.2274 130.072 31.1996 125.006 31.1996Z" fill="#BC4D97"/>
<path d="M151.555 63.7273H0.444702V70.8408H151.555V63.7273Z" fill="#573D3E"/>
<path d="M32.4535 86.7096L26.3123 102.761L20.1711 86.7096L26.3123 73.4958L32.4535 86.7096Z" fill="#573D3E"/>
<path d="M15.4565 73.4958H21.7838L18.6202 81.5822L15.4565 73.4958Z" fill="#573D3E"/>
<path d="M30.6544 73.4958H36.9817L33.8181 81.5822L30.6544 73.4958Z" fill="#573D3E"/>
<path d="M15.4565 60.0595H21.7838L18.6202 51.9529L15.4565 60.0595Z" fill="#573D3E"/>
<path d="M30.6544 60.0595H36.9817L33.8181 51.9529L30.6544 60.0595Z" fill="#573D3E"/>
<path d="M15.8082 48.0613H6.2345L11.0317 60.282L15.8082 48.0613Z" fill="#573D3E"/>
<path d="M31.0886 48.0613H21.5356L26.3121 60.282L31.0886 48.0613Z" fill="#573D3E"/>
<path d="M46.1625 48.0613H36.6095L41.386 60.282L46.1625 48.0613Z" fill="#573D3E"/>
<path d="M65.2478 60.0595H71.5751L68.4114 51.9529L65.2478 60.0595Z" fill="#573D3E"/>
<path d="M80.4456 60.0595H86.7729L83.6092 51.9529L80.4456 60.0595Z" fill="#573D3E"/>
<path d="M65.5993 48.0613H56.0256L60.8228 60.282L65.5993 48.0613Z" fill="#573D3E"/>
<path d="M80.88 48.0613H71.327L76.1035 60.282L80.88 48.0613Z" fill="#573D3E"/>
<path d="M95.9744 48.0613H86.4008L91.1772 60.282L95.9744 48.0613Z" fill="#573D3E"/>
<path d="M114.253 60.0595H120.581L117.417 51.9529L114.253 60.0595Z" fill="#573D3E"/>
<path d="M129.451 60.0595H135.779L132.615 51.9529L129.451 60.0595Z" fill="#573D3E"/>
<path d="M114.605 48.0613H105.052L109.828 60.282L114.605 48.0613Z" fill="#573D3E"/>
<path d="M129.906 48.0613H120.332L125.109 60.282L129.906 48.0613Z" fill="#573D3E"/>
<path d="M144.98 48.0613H135.406L140.204 60.282L144.98 48.0613Z" fill="#573D3E"/>
<path d="M82.1208 86.7096L75.9796 102.761L69.8384 86.7096L75.9796 73.4958L82.1208 86.7096Z" fill="#573D3E"/>
<path d="M65.1238 73.4958H71.4511L68.2874 81.5822L65.1238 73.4958Z" fill="#573D3E"/>
<path d="M80.3217 73.4958H86.6489L83.4853 81.5822L80.3217 73.4958Z" fill="#573D3E"/>
<path d="M131.25 86.7096L125.109 102.761L118.968 86.7096L125.109 73.4958L131.25 86.7096Z" fill="#573D3E"/>
<path d="M114.253 73.4958H120.581L117.417 81.5822L114.253 73.4958Z" fill="#573D3E"/>
<path d="M129.451 73.4958H135.779L132.615 81.5822L129.451 73.4958Z" fill="#573D3E"/>
</svg>
