<svg width="107" height="122" viewBox="0 0 107 122" fill="none" xmlns="http://www.w3.org/2000/svg">
<path d="M53.6197 15.4421C40.1568 15.4421 29.2617 26.1442 29.2617 39.316C29.2617 52.5113 40.1808 63.1898 53.6197 63.1898C67.0586 63.1898 77.9777 52.4878 77.9777 39.316C78.0017 26.1442 67.0826 15.4421 53.6197 15.4421ZM53.6197 48.8421C48.1961 48.8421 43.7805 44.5847 43.7805 39.3395C43.7805 34.0943 48.1961 29.837 53.6197 29.837C59.0432 29.837 63.4589 34.0943 63.4589 39.3395C63.4589 44.5847 59.0672 48.8421 53.6197 48.8421Z" fill="#BC4D97"/>
<path d="M76.298 22.7807C79.8257 27.4143 81.9376 33.13 81.9376 39.3395C81.9376 54.6752 69.2666 67.0943 53.6199 67.0943C44.1887 67.0943 35.8374 62.5548 30.7018 55.5926L0.152344 77.5848H106.848V0.812012L76.298 22.7807Z" fill="#573D3E"/>
<path d="M106.848 81.0896H0.152344V93.2265H106.848V81.0896Z" fill="#573D3E"/>
<path d="M106.848 97.4602H0.152344V105.222H106.848V97.4602Z" fill="#573D3E"/>
<path d="M106.848 109.456H0.152344V121.31H106.848V109.456Z" fill="#573D3E"/>
</svg>
