<svg width="141" height="123" viewBox="0 0 141 123" fill="none" xmlns="http://www.w3.org/2000/svg">
<path d="M20.8811 48.4072C9.35433 48.4072 0 57.5756 0 68.8733C0 80.1709 9.35433 89.3393 20.8811 89.3393C32.4078 89.3393 41.7621 80.1709 41.7621 68.8733C41.7621 57.5756 32.4078 48.4072 20.8811 48.4072ZM20.8811 77.0146C16.2295 77.0146 12.4468 73.3573 12.4468 68.8733C12.4468 64.3893 16.2295 60.732 20.8811 60.732C25.5327 60.732 29.3153 64.3893 29.3153 68.8733C29.3153 73.3573 25.5327 77.0146 20.8811 77.0146Z" fill="#BC4D97"/>
<path d="M63.5376 42.5203V35.6065C63.5376 35.6065 67.0391 33.853 67.0391 29.2938C67.0391 24.7848 58.7838 24.2838 58.7838 13.3118C58.7838 5.04518 70.4383 0.736572 70.4383 0.736572V8.12642C70.4383 8.12642 66.2212 9.57929 66.119 14.1134C65.9912 20.1505 73.6585 21.0022 73.6585 31.5233C73.6585 39.9652 63.5376 42.5203 63.5376 42.5203Z" fill="#573D3E"/>
<path d="M89.0702 42.5203V35.6065C89.0702 35.6065 92.5717 33.853 92.5717 29.2938C92.5717 24.7848 84.3164 24.2838 84.3164 13.3118C84.3164 5.04518 95.9709 0.736572 95.9709 0.736572V8.12642C95.9709 8.12642 91.7538 9.57929 91.6516 14.1134C91.5238 20.1505 99.1913 21.0022 99.1913 31.5233C99.1913 39.9652 89.0702 42.5203 89.0702 42.5203Z" fill="#573D3E"/>
<path d="M114.705 42.5203V35.6065C114.705 35.6065 118.207 33.853 118.207 29.2938C118.207 24.7848 109.951 24.2838 109.951 13.3118C109.951 5.04518 121.606 0.736572 121.606 0.736572V8.12642C121.606 8.12642 117.389 9.57929 117.287 14.1134C117.159 20.1505 124.826 21.0022 124.826 31.5233C124.826 39.9652 114.705 42.5203 114.705 42.5203Z" fill="#573D3E"/>
<path d="M140.212 113.938H44.9824V122.054H140.212V113.938Z" fill="#573D3E"/>
<path d="M92.5973 110.031C66.298 110.031 44.9824 89.1389 44.9824 63.3622V48.4072H140.212V63.3622C140.212 89.1389 118.897 110.031 92.5973 110.031Z" fill="#573D3E"/>
</svg>
