<svg width="104" height="155" viewBox="0 0 104 155" fill="none" xmlns="http://www.w3.org/2000/svg">
<path d="M53.5663 41.3511C40.9252 41.3511 30.6951 51.3999 30.6951 63.7898C30.6951 76.1797 40.9477 86.2065 53.5663 86.2065C66.2074 86.2065 76.4374 76.1576 76.4374 63.7898C76.46 51.3999 66.2074 41.3511 53.5663 41.3511ZM53.5663 72.7123C48.4738 72.7123 44.3277 68.7148 44.3277 63.7898C44.3277 58.8648 48.4738 54.8674 53.5663 54.8674C58.6588 54.8674 62.8049 58.8648 62.8049 63.7898C62.8049 68.7148 58.6813 72.7123 53.5663 72.7123Z" fill="#BC4D97"/>
<path d="M9.15329 52.88C14.1934 52.88 18.2792 48.8754 18.2792 43.9355C18.2792 38.9956 14.1934 34.991 9.15329 34.991C4.11317 34.991 0.0273438 38.9956 0.0273438 43.9355C0.0273438 48.8754 4.11317 52.88 9.15329 52.88Z" fill="#573D3E"/>
<path d="M81.1466 42.279C85.2534 42.279 88.5826 39.016 88.5826 34.9908C88.5826 30.9657 85.2534 27.7026 81.1466 27.7026C77.0399 27.7026 73.7107 30.9657 73.7107 34.9908C73.7107 39.016 77.0399 42.279 81.1466 42.279Z" fill="#573D3E"/>
<path d="M60.4612 14.3188C63.3733 14.3188 65.734 12.0051 65.734 9.15087C65.734 6.29668 63.3733 3.98291 60.4612 3.98291C57.5492 3.98291 55.1885 6.29668 55.1885 9.15087C55.1885 12.0051 57.5492 14.3188 60.4612 14.3188Z" fill="#573D3E"/>
<path d="M78.9388 70.5263C75.8968 81.6353 65.5766 89.851 53.2734 89.851C40.9027 89.851 30.5375 81.569 27.5631 70.3496C13.0066 79.1396 3.15967 95.6815 3.15967 113.173H102.734H103.951C103.973 95.792 93.698 79.3826 78.9388 70.5263Z" fill="#573D3E"/>
<path d="M87.636 154.252H19.4957L3.18164 116.486H103.973L87.636 154.252Z" fill="#573D3E"/>
<path d="M32.8846 0.538556L25.0723 3.19629L27.348 9.62238L35.1603 6.96465L32.8846 0.538556Z" fill="#573D3E"/>
<path d="M36.2735 10.0859L28.4612 12.7437L30.3157 17.9805L38.1281 15.3227L36.2735 10.0859Z" fill="#573D3E"/>
<path d="M39.3834 18.8523L31.571 21.51L33.4256 26.7468L41.2379 24.0891L39.3834 18.8523Z" fill="#573D3E"/>
<path d="M42.8646 28.707L35.0522 31.3647L37.2023 37.4362L45.0147 34.7785L42.8646 28.707Z" fill="#573D3E"/>
</svg>
