<svg width="157" height="59" viewBox="0 0 157 59" fill="none" xmlns="http://www.w3.org/2000/svg">
<path d="M16.9116 39.8471C19.3074 39.1059 21.0407 36.9151 21.0407 34.3307V33.8191C21.0407 29.2078 17.2328 25.4756 12.5281 25.4756H0V40.116V57.5114H13.813C19.0933 57.5114 23.3697 53.32 23.3697 48.1447V47.4362C23.3697 43.7565 20.5254 40.4243 16.9116 39.8471ZM5.05941 29.8638H11.9258C14.1409 29.8638 15.9278 31.6217 15.9278 33.7863V34.2323C15.9278 36.4034 14.1342 38.1548 11.9258 38.1548H5.05941V29.8638ZM18.0693 48.1775C18.0693 50.9258 15.8006 53.1494 12.9965 53.1494H5.05941V42.1691H12.9965C15.8006 42.1691 18.0693 44.3927 18.0693 47.1411V48.1775Z" fill="#F2E0CF"/>
<path d="M49.838 37.6563C49.838 30.9264 44.2766 25.4756 37.4103 25.4756H32.565H28.9913H27.4655V57.5114H32.565V49.837H37.4103C37.6646 49.837 37.9189 49.8173 38.1732 49.7976L43.5672 57.5114H49.8447L43.2862 48.3939C47.1878 46.3343 49.838 42.3003 49.838 37.6563ZM32.565 30.0802H36.8816C41.0175 30.0802 44.3703 33.3665 44.3703 37.4201V38.1679C44.3703 42.2216 41.0175 45.5078 36.8816 45.5078H32.565V30.0802Z" fill="#F2E0CF"/>
<path d="M69.9885 48.302C73.8916 48.302 77.0556 45.2537 77.0556 41.4934C77.0556 37.7331 73.8916 34.6848 69.9885 34.6848C66.0854 34.6848 62.9214 37.7331 62.9214 41.4934C62.9214 45.2537 66.0854 48.302 69.9885 48.302Z" fill="#F2E0CF"/>
<path d="M69.9886 24.308C60.2512 24.308 52.361 32.0414 52.361 41.5853C52.361 51.1291 60.2512 58.8626 69.9886 58.8626C79.726 58.8626 87.6162 51.1291 87.6162 41.5853C87.6162 32.0414 79.726 24.308 69.9886 24.308ZM69.9886 53.5954C63.2695 53.5954 57.8219 48.2233 57.8219 41.5918C57.8219 34.9603 63.2695 29.5883 69.9886 29.5883C76.7077 29.5883 82.1553 34.9603 82.1553 41.5918C82.1553 48.2233 76.7077 53.5954 69.9886 53.5954Z" fill="#BC4D97"/>
<path d="M128.011 25.5935H122.39L113.837 47.4755L109.681 37.7939L115.282 25.5935H109.861L107.198 32.0151L104.441 25.5935H99.0199L104.702 38.0628L100.787 47.5148L91.7118 25.5935H86.291L100.345 58.1344L107.118 43.3824L113.837 58.1344L128.011 25.5935Z" fill="#F2E0CF"/>
<path d="M130.541 24.8851L135.239 29.6472V57.4326H130.541V24.8851Z" fill="#F2E0CF"/>
<path d="M156.36 25.5935H151.662V46.3801L130.541 24.8851V57.4326H135.239V36.6919L156.36 58.1344V25.5935Z" fill="#F2E0CF"/>
<path d="M32.4445 4.24297C31.4339 4.24297 30.5037 4.59061 29.7742 5.1744L29.3593 1.93408L26.9032 2.1571L28.5294 13.4064L30.7915 13.1833L30.6576 12.1142C31.1997 12.3634 31.802 12.5077 32.4445 12.5077C34.7734 12.5077 36.6606 10.658 36.6606 8.37535C36.6606 6.0927 34.7734 4.24297 32.4445 4.24297ZM32.2236 10.4022C31.3001 10.4022 30.5305 9.80529 30.2628 8.98537L30.1691 8.25072C30.236 7.18811 31.1261 6.34852 32.2236 6.34852C33.368 6.34852 34.2915 7.25371 34.2915 8.37535C34.2915 9.49044 33.368 10.4022 32.2236 10.4022Z" fill="#F5E0D1"/>
<path d="M44.2296 5.04973L44.156 5.95492C43.4132 5.36458 42.4696 5.01038 41.4389 5.01038C39.0431 5.01038 37.1023 6.91258 37.1023 9.26083C37.1023 11.6091 39.0431 13.5113 41.4389 13.5113C42.2286 13.5113 42.9715 13.3014 43.6073 12.9406L43.5269 13.9442H45.8023L46.4783 5.04973H44.2296ZM41.6999 11.3861C40.589 11.3861 39.6922 10.5071 39.6922 9.41825C39.6922 8.3294 40.589 7.45045 41.6999 7.45045C42.8109 7.45045 43.7076 8.3294 43.7076 9.41825C43.7076 10.5071 42.8109 11.3861 41.6999 11.3861Z" fill="#F5E0D1"/>
<path d="M51.9192 4.71511C51.9192 4.71511 50.1524 5.11523 49.9918 6.34839C49.8713 7.29293 52.1936 9.4116 51.6983 11.1892C51.183 13.0324 47.9841 13.8654 47.9841 13.8654L47.3215 12.3108C47.3215 12.3108 49.3292 11.8386 49.2489 10.7366C49.1552 9.4116 47.0739 7.74553 47.5625 5.87612C48.0845 3.86896 51.1563 3.36389 51.1563 3.36389L51.9192 4.71511Z" fill="#F5E0D1"/>
<path d="M59.4281 11.9305L61.322 10.4022L58.7187 7.07661L60.8803 5.04321L59.2206 3.4165L55.1918 7.35866L55.6134 0.602539H53.0837L52.6219 12.7832L54.991 10.5793V10.5727L56.9318 8.74924L59.4281 11.9305Z" fill="#F5E0D1"/>
<path d="M63.5238 4.49227C64.263 4.49227 64.8622 3.90492 64.8622 3.1804C64.8622 2.45587 64.263 1.86853 63.5238 1.86853C62.7846 1.86853 62.1853 2.45587 62.1853 3.1804C62.1853 3.90492 62.7846 4.49227 63.5238 4.49227Z" fill="#F5E0D1"/>
<path d="M112.913 4.11177C113.652 4.11177 114.252 3.52443 114.252 2.7999C114.252 2.07538 113.652 1.48804 112.913 1.48804C112.174 1.48804 111.575 2.07538 111.575 2.7999C111.575 3.52443 112.174 4.11177 112.913 4.11177Z" fill="#F5E0D1"/>
<path d="M113.589 11.1958H111.575L111.742 4.33472H113.91L113.589 11.1958Z" fill="#F5E0D1"/>
<path d="M74.8874 5.00374H72.4849V9.09021L68.9245 5.61376L66.8365 3.51477L66.522 12.547H68.9245V8.65073L72.699 12.4027L74.5729 14.2918L74.8874 5.00374Z" fill="#F5E0D1"/>
<path d="M122.811 4.33475H120.763V7.94239L115.49 1.97339V11.0056L117.584 11.0384L117.578 7.27333L122.811 12.8619V4.33475Z" fill="#F5E0D1"/>
<path d="M85.8493 6.09264V3.51482C85.8493 3.51482 83.942 3.45579 83.0988 4.28227L83.0251 3.27869L80.2545 3.42955L81.2182 12.9931L83.855 12.8881L83.5003 8.27034C83.4535 7.65376 83.6676 7.03063 84.1495 6.63051C84.8655 6.04017 85.8493 6.09264 85.8493 6.09264Z" fill="#F5E0D1"/>
<path d="M89.3427 5.3252C87.0941 5.3252 85.2671 6.99127 85.2671 9.04434C85.2671 11.0974 87.0941 12.7635 89.3427 12.7635C91.5914 12.7635 93.4184 11.0974 93.4184 9.04434C93.4184 6.99127 91.5914 5.3252 89.3427 5.3252ZM89.3427 10.7957C88.2853 10.7957 87.422 10.0086 87.422 9.04434C87.422 8.08012 88.2786 7.293 89.3427 7.293C90.4001 7.293 91.2634 8.08012 91.2634 9.04434C91.2634 10.0086 90.4001 10.7957 89.3427 10.7957Z" fill="#F5E0D1"/>
<path d="M98.1165 5.98766C97.4473 5.98766 96.845 6.13853 96.3297 6.39434L96.3698 3.27209H94.2015L94.0409 13.5637H96.2293L96.236 12.9734C96.7781 13.262 97.4138 13.426 98.1165 13.426C100.365 13.426 102.192 11.7599 102.192 9.70681C102.192 7.65373 100.365 5.98766 98.1165 5.98766ZM98.1165 11.4581C97.2331 11.4581 96.5037 10.9137 96.2761 10.1725L96.2895 9.19518C96.5304 8.48021 97.2532 7.9489 98.1165 7.9489C99.1739 7.9489 100.037 8.73602 100.037 9.70025C100.037 10.6645 99.1739 11.4581 98.1165 11.4581Z" fill="#F5E0D1"/>
<path d="M106.77 4.14454C106.02 4.14454 105.378 4.34132 104.849 4.68241L104.762 1.70447H102.573L102.935 11.9567H105.063L105.043 11.1827C105.532 11.432 106.107 11.5828 106.77 11.5828C109.018 11.5828 110.845 9.91676 110.845 7.86369C110.845 5.81061 109.018 4.14454 106.77 4.14454ZM106.77 9.61503C105.926 9.61503 105.217 9.11652 104.956 8.42123L104.922 7.39141C105.15 6.65677 105.88 6.11234 106.763 6.11234C107.82 6.11234 108.684 6.89946 108.684 7.86369C108.684 8.82791 107.827 9.61503 106.77 9.61503Z" fill="#F5E0D1"/>
<path d="M65.0965 12.547H62.607L62.3527 5.00378H64.8623L65.0965 12.547Z" fill="#F5E0D1"/>
<path d="M128.058 4.69553C128.058 4.69553 126.305 4.99726 126.09 6.22385C125.896 7.33238 128.453 9.64783 127.73 11.55C127.047 13.3407 124.21 13.7605 124.21 13.7605L123.547 12.206C123.547 12.206 125.555 11.7337 125.475 10.6317C125.381 9.30674 123.3 7.64067 123.788 5.77126C124.31 3.7641 127.382 3.25903 127.382 3.25903L128.058 4.69553Z" fill="#F5E0D1"/>
<path d="M128.046 4.47058H128.341V3.24401H128.758V2.9975H127.633V3.24401H128.046V4.47058ZM127.754 7.47058H128.019V6.8563C128.019 6.71714 127.995 6.51238 127.981 6.37322H127.989L128.106 6.71913L128.335 7.33739H128.504L128.73 6.71913L128.85 6.37322H128.859C128.844 6.51238 128.822 6.71714 128.822 6.8563V7.47058H129.09V5.9975H128.764L128.52 6.68732C128.488 6.77877 128.462 6.87618 128.43 6.96961H128.42C128.39 6.87618 128.362 6.77877 128.331 6.68732L128.08 5.9975H127.754V7.47058Z" fill="#F5E0D1"/>
</svg>
